<svg width="106" height="61" viewBox="0 0 106 61" fill="none" xmlns="http://www.w3.org/2000/svg">
<g id="Group">
<path id="Vector" d="M63.8596 30.7455C67.9264 30.7455 71.1868 27.6951 71.1868 23.6715C71.1868 19.6467 67.9252 16.5963 63.8596 16.5963C59.794 16.5963 56.5312 19.6467 56.5312 23.6715C56.5312 27.6951 59.7928 30.7455 63.8596 30.7455ZM63.8596 20.2779C65.7364 20.2779 67.2856 21.8127 67.2856 23.6715C67.2856 25.5303 65.7364 27.0651 63.8596 27.0651C61.9828 27.0651 60.4336 25.5303 60.4336 23.6715C60.4336 21.8127 61.9828 20.2779 63.8596 20.2779Z" fill="#094792"/>
<path id="Vector_2" d="M82.0486 25.8917C83.3614 24.9893 84.4006 23.6525 84.4006 21.8309C84.4006 18.9977 82.1206 16.9037 79.2394 16.9037H73.0234V30.4397H76.7434V26.7569H78.493L80.1886 30.4397H84.3634L82.0486 25.8917ZM79.2406 23.4185H76.7446V20.2229H79.2406C80.0806 20.2229 80.6278 21.1613 80.6278 21.8297C80.6278 22.4993 80.0806 23.4185 79.2406 23.4185Z" fill="#094792"/>
<path id="Vector_3" d="M86.6562 16.9037H90.3763V30.4397H86.6562V16.9037Z" fill="#094792"/>
<path id="Vector_4" d="M98.104 16.9025L91.834 30.4373H95.8204L96.4744 28.9049H101.127L101.781 30.4373H105.767L99.4996 16.9025H98.104ZM97.6096 25.6913L98.7652 23.0561H98.8396L99.9928 25.6913H97.6096Z" fill="#094792"/>
<path id="Vector_5" d="M48.408 32.8884H52.128V22.6728H55.866V19.3524H46.8624L55.608 0.483643H0L8.7996 19.4748H12.9024L16.2696 26.7396L19.6356 19.4748H23.7468L17.5872 32.7684H14.9604L27.8028 60.4836L40.9404 32.13C39.9228 32.7192 38.7396 33.0564 37.476 33.0564C33.5064 33.0564 30.3528 30.0612 30.3528 26.1084C30.3528 22.1556 33.5064 19.1604 37.476 19.1604C40.0128 19.1604 42.2268 20.526 43.4316 22.5456L40.3296 24.4068C39.7452 23.4492 38.6808 22.776 37.476 22.776C35.634 22.776 34.1448 24.2832 34.1448 26.1084C34.1448 27.9336 35.634 29.442 37.476 29.442C38.682 29.442 39.7452 28.7856 40.3296 27.81L42.3732 29.0364L45.3228 22.6716H48.4056V32.8884H48.408ZM28.662 32.7684H24.8652V19.4748H28.662V32.7684Z" fill="#094792"/>
<path id="Vector_6" d="M50.4768 41.6127C49.6068 41.6127 48.8076 41.2743 48.3204 40.8831L47.6172 41.9691C48.3444 42.5559 49.446 42.8535 50.4708 42.8535C51.9276 42.8535 53.2416 42.1443 53.2416 40.6491C53.2416 39.4695 52.2948 38.9535 51.0864 38.7543L50.7048 38.6919C49.8912 38.5551 49.3068 38.4075 49.3068 37.9071C49.3068 37.3947 49.842 37.0959 50.6016 37.0959C51.342 37.0959 51.99 37.3407 52.5216 37.6707L53.16 36.5679C52.3092 36.0615 51.5196 35.8491 50.574 35.8491C49.1316 35.8491 47.8752 36.5823 47.8752 37.9935C47.8752 39.2187 48.7452 39.7455 49.9392 39.9327L50.37 40.0011C51.312 40.1511 51.8052 40.3263 51.8052 40.7943C51.8064 41.3151 51.2268 41.6127 50.4768 41.6127Z" fill="#094792"/>
<path id="Vector_7" d="M57.8253 42.3625L57.3609 41.3737C57.1053 41.5309 56.7825 41.6809 56.4825 41.6809C56.0913 41.6809 55.7817 41.4673 55.7817 40.8829V39.1705H57.4761V38.0485H55.7817V36.6565H54.5181V38.0485H53.6133V39.1705H54.5181V40.9837C54.5181 42.1969 55.1109 42.8545 56.2737 42.8545C56.9409 42.8545 57.4125 42.6421 57.8253 42.3625Z" fill="#094792"/>
<path id="Vector_8" d="M62.9501 42.7346V38.0498H61.7165V38.5646C61.4069 38.1842 60.9581 37.9238 60.3137 37.9238C59.0237 37.9238 58.0469 38.9834 58.0469 40.3898C58.0469 41.7974 59.0225 42.8558 60.3137 42.8558C60.9581 42.8558 61.4117 42.5942 61.7165 42.221V42.737H62.9501V42.7346ZM60.5477 41.6798C59.8073 41.6798 59.3381 41.1038 59.3381 40.3886C59.3381 39.6722 59.8073 39.0986 60.5477 39.0986C61.2677 39.0986 61.7549 39.6482 61.7549 40.3886C61.7549 41.1302 61.2677 41.6798 60.5477 41.6798Z" fill="#094792"/>
<path id="Vector_9" d="M66.2776 42.8545C66.946 42.8545 67.4188 42.6421 67.8292 42.3637L67.3648 41.3761C67.1092 41.5321 66.7864 41.6821 66.484 41.6821C66.0928 41.6821 65.7832 41.4673 65.7832 40.8841V39.1705H67.4824V38.0485H65.7832V36.6565H64.522V38.0485H63.6172V39.1705H64.522V40.9849C64.522 42.1969 65.1172 42.8545 66.2776 42.8545Z" fill="#094792"/>
<path id="Vector_10" d="M71.7403 41.3307C71.4007 41.6175 70.9627 41.7831 70.5547 41.7831C69.9619 41.7831 69.4879 41.4879 69.3511 40.8087H72.6739C72.6907 40.7019 72.6979 40.5291 72.6979 40.3839C72.6931 38.9235 71.7703 37.9227 70.4227 37.9227C69.0187 37.9227 68.0527 38.9283 68.0527 40.4031C68.0527 41.8779 69.0487 42.8535 70.4839 42.8535C71.2723 42.8535 71.9503 42.6315 72.4807 42.1443L71.7403 41.3307ZM70.4107 39.0111C70.9507 39.0111 71.3131 39.3495 71.4307 39.9483H69.3559C69.4663 39.3687 69.8155 39.0111 70.4107 39.0111Z" fill="#094792"/>
<path id="Vector_11" d="M51.3183 47.68V48.8056H53.0391C52.8603 49.7692 52.2171 50.302 51.1155 50.302C49.9431 50.302 49.0023 49.4356 49.0023 48.0532C49.0023 46.7332 49.9023 45.8248 51.1383 45.8248C51.8307 45.8248 52.3911 46.096 52.7739 46.534L53.7459 45.5824C53.1471 44.9296 52.2519 44.5444 51.1791 44.5444C49.0983 44.5444 47.6055 46.0096 47.6055 48.0544C47.6055 50.2408 49.2687 51.5584 51.1443 51.5584C53.0643 51.5584 54.4527 50.116 54.4527 48.064C54.4527 47.9392 54.4467 47.812 54.4323 47.6824H51.3183V47.68Z" fill="#094792"/>
<path id="Vector_12" d="M57.6175 46.625C56.1607 46.625 55.0879 47.6798 55.0879 49.091C55.0879 50.5034 56.1619 51.557 57.6175 51.557C59.0779 51.557 60.1567 50.5034 60.1567 49.091C60.1567 47.6798 59.0779 46.625 57.6175 46.625ZM57.6175 50.3834C56.9059 50.3834 56.3755 49.853 56.3755 49.091C56.3755 48.3326 56.9059 47.8022 57.6175 47.8022C58.3279 47.8022 58.8655 48.3326 58.8655 49.091C58.8655 49.853 58.3279 50.3834 57.6175 50.3834Z" fill="#094792"/>
<path id="Vector_13" d="M62.8672 50.1074L61.6528 46.751H60.2812L62.1328 51.437H63.5885L65.4209 46.751H64.0912L62.8672 50.1074Z" fill="#094792"/>
<path id="Vector_14" d="M67.92 46.625C66.5172 46.625 65.5488 47.6318 65.5488 49.1054C65.5488 50.579 66.5448 51.5558 67.9824 51.5558C68.7696 51.5558 69.4488 51.335 69.978 50.8466L69.2376 50.033C68.9004 50.3174 68.4612 50.4842 68.0544 50.4842C67.4592 50.4842 66.9852 50.189 66.8496 49.5134H70.1736C70.188 49.4054 70.1976 49.2314 70.1976 49.0862C70.1916 47.6258 69.2688 46.625 67.92 46.625ZM66.8556 48.6518C66.9672 48.0722 67.3152 47.7146 67.9104 47.7146C68.4504 47.7146 68.8128 48.053 68.9292 48.6518H66.8556Z" fill="#094792"/>
<path id="Vector_15" d="M72.2572 47.2635V46.7499H71.0332V51.4359H72.2956V48.8847C72.2956 48.1851 72.6964 47.8275 73.282 47.8275C73.5376 47.8275 73.8376 47.8863 74.0464 47.9787L74.2336 46.7271C74.0596 46.6635 73.8472 46.6239 73.5772 46.6239C73.0024 46.6251 72.5536 46.8243 72.2572 47.2635Z" fill="#094792"/>
<path id="Vector_16" d="M77.5075 46.625C76.9759 46.625 76.4635 46.8038 76.1299 47.2994V46.7498H74.9023V51.4358H76.1647V48.8678C76.1647 48.1622 76.6147 47.8082 77.1571 47.8082C77.7319 47.8082 78.0703 48.1802 78.0703 48.8594V51.4346H79.3327V48.4514C79.3315 47.3642 78.5719 46.625 77.5075 46.625Z" fill="#094792"/>
<path id="Vector_17" d="M86.1663 46.625C85.5507 46.625 84.9399 46.8338 84.5751 47.429C84.2607 46.931 83.7063 46.625 83.0283 46.625C82.4979 46.625 81.9843 46.8038 81.6495 47.2994V46.7498H80.4219V51.4358H81.6855V48.8678C81.6855 48.1622 82.1355 47.8082 82.6767 47.8082C83.2527 47.8082 83.5911 48.1802 83.5911 48.8594V51.4346H84.8547V48.8666C84.8547 48.161 85.3035 47.807 85.8435 47.807C86.4159 47.807 86.7579 48.179 86.7579 48.8582V51.4334H88.0155V48.4502C88.0131 47.3642 87.2703 46.625 86.1663 46.625Z" fill="#094792"/>
<path id="Vector_18" d="M91.1869 46.625C89.7841 46.625 88.8145 47.6318 88.8145 49.1054C88.8145 50.579 89.8129 51.5558 91.2469 51.5558C92.0365 51.5558 92.7121 51.335 93.2461 50.8466L92.5056 50.033C92.1684 50.3174 91.728 50.4842 91.3224 50.4842C90.726 50.4842 90.2509 50.189 90.1177 49.5134H93.4392C93.4536 49.4054 93.4633 49.2314 93.4633 49.0862C93.4573 47.6258 92.5345 46.625 91.1869 46.625ZM90.1224 48.6518C90.234 48.0722 90.5809 47.7146 91.1773 47.7146C91.7185 47.7146 92.0797 48.053 92.1973 48.6518H90.1224Z" fill="#094792"/>
<path id="Vector_19" d="M96.904 46.625C96.3724 46.625 95.8612 46.8038 95.5264 47.2994V46.7498H94.2988V51.4358H95.5624V48.8678C95.5624 48.1622 96.01 47.8082 96.5536 47.8082C97.1284 47.8082 97.468 48.1802 97.468 48.8594V51.4346H98.7292V48.4514C98.728 47.3642 97.9684 46.625 96.904 46.625Z" fill="#094792"/>
<path id="Vector_20" d="M102.176 50.3835C101.782 50.3835 101.473 50.1699 101.473 49.5855V47.8731H103.169V46.7523H101.473V45.3591H100.211V46.7523H99.3066V47.8731H100.211V49.6863C100.211 50.9007 100.807 51.5571 101.967 51.5571C102.635 51.5571 103.106 51.3447 103.519 51.0663L103.054 50.0775C102.799 50.2335 102.476 50.3835 102.176 50.3835Z" fill="#094792"/>
</g>
</svg>
